<svg id="Layer_1" data-name="Layer 1" xmlns="http://www.w3.org/2000/svg" viewBox="0 0 863 796"><defs><style>.cls-1,.cls-2,.cls-3{fill:none;stroke-width:0.2px;}.cls-1,.cls-2{stroke:lime;stroke-linecap:round;stroke-linejoin:round;}.cls-1,.cls-3{fill-rule:evenodd;}.cls-3{stroke:#ee3537;stroke-miterlimit:10;}</style></defs><title>iris-sandwhich</title><path class="cls-1" d="M0,0H0" transform="translate(-17 -32)"/><line class="cls-2" x1="110" y1="420" x2="116" y2="414"/><path class="cls-1" d="M0,0H0" transform="translate(-17 -32)"/><line class="cls-2" x1="248" y1="345" x2="254" y2="342"/><path class="cls-1" d="M0,0H0" transform="translate(-17 -32)"/><line class="cls-2" x1="259" y1="332" x2="251" y2="297"/><path class="cls-1" d="M0,0H0" transform="translate(-17 -32)"/><line class="cls-2" x1="257" y1="287" x2="423" y2="248"/><path class="cls-1" d="M0,0H0" transform="translate(-17 -32)"/><line class="cls-2" x1="429" y1="238" x2="376" y2="13"/><path class="cls-1" d="M0,0H0" transform="translate(-17 -32)"/><line class="cls-2" x1="367" y1="6" x2="361" y2="6"/><path class="cls-1" d="M0,0H0" transform="translate(-17 -32)"/><line class="cls-2" x1="32" y1="79" x2="29" y2="82"/><path class="cls-1" d="M0,0H0" transform="translate(-17 -32)"/><line class="cls-2" x1="26" y1="91" x2="58" y2="227"/><path class="cls-1" d="M0,0H0" transform="translate(-17 -32)"/><line class="cls-2" x1="9" y1="301" x2="3" y2="307"/><path class="cls-1" d="M0,0H0" transform="translate(-17 -32)"/><line class="cls-2" x1="2" y1="319" x2="98" y2="420"/><path class="cls-1" d="M0,0H0" transform="translate(-17 -32)"/><path class="cls-3" d="M0,0H0" transform="translate(-17 -32)"/><path class="cls-3" d="M0,0H0" transform="translate(-17 -32)"/><path class="cls-3" d="M0,0H0" transform="translate(-17 -32)"/><path class="cls-3" d="M0,0H0" transform="translate(-17 -32)"/><path class="cls-3" d="M0,0H0" transform="translate(-17 -32)"/><path class="cls-3" d="M0,0H0" transform="translate(-17 -32)"/><path class="cls-3" d="M0,0H0" transform="translate(-17 -32)"/><path class="cls-3" d="M0,0H0" transform="translate(-17 -32)"/><path class="cls-3" d="M0,0H0" transform="translate(-17 -32)"/><path class="cls-3" d="M0,0H0" transform="translate(-17 -32)"/><path class="cls-3" d="M0,0H0" transform="translate(-17 -32)"/><path class="cls-3" d="M0,0H0" transform="translate(-17 -32)"/><path class="cls-3" d="M0,0H0" transform="translate(-17 -32)"/><path class="cls-3" d="M0,0H0" transform="translate(-17 -32)"/><path class="cls-3" d="M0,0H0" transform="translate(-17 -32)"/><polygon class="cls-3" points="169 298 170 300 172 299 180 334 178 335 178 336 140 346 140 344 137 344 129 309 131 309 131 307 169 298"/><polygon class="cls-3" points="220 279 221 281 223 280 231 315 229 316 229 317 191 326 191 325 188 325 180 290 182 290 182 288 220 279"/><polygon class="cls-3" points="393 189 393 191 396 190 404 225 402 226 402 228 364 237 364 235 361 236 353 201 355 200 355 198 393 189"/><polygon class="cls-3" points="341 202 341 204 343 203 351 238 349 238 350 240 311 249 311 248 309 248 301 213 303 213 302 211 341 202"/><polygon class="cls-3" points="129 245 129 247 131 247 140 281 138 282 138 284 100 293 99 291 97 292 89 257 91 256 91 254 129 245"/><polygon class="cls-3" points="285 201 285 203 287 202 296 237 294 238 294 239 256 249 255 247 253 247 245 213 247 212 247 210 285 201"/><polygon class="cls-3" points="180 226 180 228 182 227 191 262 189 263 189 264 151 274 150 272 148 272 140 238 142 237 142 235 180 226"/><polygon class="cls-3" points="231 207 231 209 233 208 242 243 239 244 240 245 202 255 201 253 199 253 191 219 193 218 193 216 231 207"/><polygon class="cls-3" points="381 137 381 138 383 138 391 173 389 173 390 175 351 184 351 182 349 183 341 148 343 148 342 146 381 137"/><polygon class="cls-3" points="328 149 328 151 331 150 339 185 337 186 337 188 299 197 299 195 296 196 288 161 290 160 290 158 328 149"/><polygon class="cls-3" points="116 193 117 195 119 194 127 229 125 229 125 231 87 240 87 238 85 239 76 204 79 204 78 202 116 193"/><polygon class="cls-3" points="272 149 273 150 275 150 283 185 281 185 281 187 243 196 243 194 241 195 232 160 235 159 234 158 272 149"/><polygon class="cls-3" points="167 174 168 175 170 175 178 210 176 210 176 212 138 221 138 219 136 220 127 185 130 185 129 183 167 174"/><polygon class="cls-3" points="218 155 219 156 221 156 229 191 227 191 227 193 189 202 189 200 187 201 178 166 180 165 180 164 218 155"/><polygon class="cls-3" points="368 84 368 86 371 85 379 120 377 121 377 122 339 132 339 130 336 130 328 96 330 95 330 93 368 84"/><polygon class="cls-3" points="316 97 316 98 318 98 326 133 324 133 325 135 286 144 286 142 284 143 276 108 278 108 277 106 316 97"/><polygon class="cls-3" points="104 140 104 142 106 141 115 176 113 177 113 179 75 188 74 186 72 186 64 152 66 151 66 149 104 140"/><polygon class="cls-3" points="260 96 260 98 262 97 271 132 269 133 269 134 231 144 230 142 228 142 220 107 222 107 222 105 260 96"/><polygon class="cls-3" points="155 121 155 123 157 122 166 157 163 158 164 159 126 169 125 167 123 167 115 133 117 132 117 130 155 121"/><polygon class="cls-3" points="206 102 206 104 208 103 217 138 214 139 215 140 177 149 176 148 174 148 166 113 168 113 168 111 206 102"/><polygon class="cls-3" points="356 32 356 33 358 33 366 68 364 68 365 70 326 79 326 77 324 78 316 43 318 43 317 41 356 32"/><polygon class="cls-3" points="303 44 303 46 306 45 314 80 312 81 312 82 274 92 274 90 271 90 263 56 265 55 265 53 303 44"/><polygon class="cls-3" points="91 88 92 89 94 89 102 124 100 124 100 126 62 135 62 133 60 134 51 99 54 99 53 97 91 88"/><polygon class="cls-3" points="247 44 248 45 250 45 258 80 256 80 256 82 218 91 218 89 216 90 207 55 210 54 209 53 247 44"/><polygon class="cls-3" points="142 69 143 70 145 70 153 105 151 105 151 107 113 116 113 114 111 115 102 80 104 79 104 78 142 69"/><polygon class="cls-3" points="193 50 194 51 196 51 204 86 202 86 202 88 164 97 164 95 162 96 153 61 155 60 155 59 193 50"/><polygon class="cls-3" points="36 319 37 318 36 316 62 291 64 293 65 292 71 298 72 296 78 303 77 304 117 347 118 345 125 352 123 353 129 359 128 361 129 362 103 387 101 385 100 386 36 319"/><path class="cls-3" d="M0,0H0" transform="translate(-17 -32)"/><path class="cls-3" d="M0,0H0" transform="translate(-17 -32)"/><path class="cls-3" d="M0,0H0" transform="translate(-17 -32)"/><path class="cls-3" d="M0,0H0" transform="translate(-17 -32)"/><path class="cls-3" d="M0,0H0" transform="translate(-17 -32)"/><path class="cls-3" d="M0,0H0" transform="translate(-17 -32)"/><path class="cls-3" d="M0,0H0" transform="translate(-17 -32)"/><path class="cls-3" d="M0,0H0" transform="translate(-17 -32)"/><path class="cls-3" d="M0,0H0" transform="translate(-17 -32)"/><path class="cls-3" d="M0,0H0" transform="translate(-17 -32)"/><path class="cls-3" d="M0,0H0" transform="translate(-17 -32)"/><path class="cls-3" d="M0,0H0" transform="translate(-17 -32)"/><path class="cls-3" d="M0,0H0" transform="translate(-17 -32)"/><path class="cls-3" d="M0,0H0" transform="translate(-17 -32)"/><line class="cls-2" x1="379" y1="301" x2="385" y2="296"/><path class="cls-1" d="M0,0H0" transform="translate(-17 -32)"/><line class="cls-2" x1="428" y1="256" x2="438" y2="266"/><path class="cls-1" d="M0,0H0" transform="translate(-17 -32)"/><line class="cls-2" x1="442" y1="266" x2="455" y2="254"/><path class="cls-1" d="M0,0H0" transform="translate(-17 -32)"/><line class="cls-2" x1="455" y1="250" x2="436" y2="230"/><path class="cls-1" d="M0,0H0" transform="translate(-17 -32)"/><line class="cls-2" x1="435" y1="221" x2="403" y2="85"/><path class="cls-1" d="M0,0H0" transform="translate(-17 -32)"/><line class="cls-2" x1="405" y1="77" x2="409" y2="74"/><path class="cls-1" d="M0,0H0" transform="translate(-17 -32)"/><line class="cls-2" x1="525" y1="20" x2="527" y2="30"/><path class="cls-1" d="M0,0H0" transform="translate(-17 -32)"/><line class="cls-2" x1="531" y1="32" x2="560" y2="25"/><path class="cls-1" d="M0,0H0" transform="translate(-17 -32)"/><line class="cls-2" x1="562" y1="22" x2="560" y2="13"/><path class="cls-1" d="M0,0H0" transform="translate(-17 -32)"/><line class="cls-2" x1="738" y1="1" x2="744" y2="1"/><path class="cls-1" d="M0,0H0" transform="translate(-17 -32)"/><line class="cls-2" x1="752" y1="7" x2="806" y2="232"/><path class="cls-1" d="M0,0H0" transform="translate(-17 -32)"/><line class="cls-2" x1="799" y1="242" x2="634" y2="282"/><path class="cls-1" d="M0,0H0" transform="translate(-17 -32)"/><line class="cls-2" x1="628" y1="292" x2="636" y2="327"/><path class="cls-1" d="M0,0H0" transform="translate(-17 -32)"/><line class="cls-2" x1="631" y1="337" x2="624" y2="339"/><path class="cls-1" d="M0,0H0" transform="translate(-17 -32)"/><line class="cls-2" x1="493" y1="409" x2="486" y2="415"/><path class="cls-1" d="M0,0H0" transform="translate(-17 -32)"/><line class="cls-2" x1="474" y1="414" x2="379" y2="313"/><path class="cls-1" d="M0,0H0" transform="translate(-17 -32)"/><path class="cls-3" d="M0,0H0" transform="translate(-17 -32)"/><path class="cls-1" d="M0,0H0" transform="translate(-17 -32)"/><polyline class="cls-1" points="58 676 61 673 65 670"/><path class="cls-1" d="M0,0H0" transform="translate(-17 -32)"/><line class="cls-2" x1="105" y1="635" x2="110" y2="641"/><path class="cls-1" d="M0,0H0" transform="translate(-17 -32)"/><polyline class="cls-1" points="80 686 118 726 156 767"/><path class="cls-1" d="M0,0H0" transform="translate(-17 -32)"/><polyline class="cls-1" points="296 693 291 672 286 651"/><path class="cls-1" d="M0,0H0" transform="translate(-17 -32)"/><polyline class="cls-1" points="290 644 375 624 461 603"/><path class="cls-1" d="M0,0H0" transform="translate(-17 -32)"/><polyline class="cls-1" points="465 596 441 496 417 396"/><path class="cls-1" d="M0,0H0" transform="translate(-17 -32)"/><polyline class="cls-1" points="269 393 268 391 267 385"/><path class="cls-1" d="M0,0H0" transform="translate(-17 -32)"/><polyline class="cls-1" points="417 375 420 375 423 375"/><path class="cls-1" d="M0,0H0" transform="translate(-17 -32)"/><polyline class="cls-1" points="431 382 458 494 485 606"/><path class="cls-1" d="M0,0H0" transform="translate(-17 -32)"/><polyline class="cls-1" points="478 616 396 636 313 656"/><path class="cls-1" d="M0,0H0" transform="translate(-17 -32)"/><polyline class="cls-1" points="307 666 311 684 315 701"/><path class="cls-1" d="M0,0H0" transform="translate(-17 -32)"/><polyline class="cls-1" points="310 711 307 712 303 714"/><path class="cls-1" d="M0,0H0" transform="translate(-17 -32)"/><polyline class="cls-1" points="172 783 169 786 165 789"/><path class="cls-1" d="M0,0H0" transform="translate(-17 -32)"/><polyline class="cls-1" points="153 788 106 738 58 688"/><path class="cls-1" d="M0,0H0" transform="translate(-17 -32)"/><polyline class="cls-1" points="114 596 98 527 82 459"/><path class="cls-1" d="M0,0H0" transform="translate(-17 -32)"/><polyline class="cls-1" points="84 451 86 449 88 448"/><path class="cls-1" d="M0,0H0" transform="translate(-17 -32)"/><line class="cls-2" x1="142" y1="412" x2="147" y2="410"/><path class="cls-1" d="M0,0H0" transform="translate(-17 -32)"/><polyline class="cls-1" points="153 413 154 417 155 422"/><path class="cls-1" d="M0,0H0" transform="translate(-17 -32)"/><polyline class="cls-1" points="100 464 115 528 131 592"/><path class="cls-1" d="M0,0H0" transform="translate(-17 -32)"/><line class="cls-2" x1="124" y1="608" x2="115" y2="598"/><path class="cls-1" d="M0,0H0" transform="translate(-17 -32)"/><path class="cls-3" d="M0,0H0" transform="translate(-17 -32)"/><path class="cls-3" d="M0,0H0" transform="translate(-17 -32)"/><path class="cls-3" d="M0,0H0" transform="translate(-17 -32)"/><path class="cls-3" d="M0,0H0" transform="translate(-17 -32)"/><path class="cls-3" d="M0,0H0" transform="translate(-17 -32)"/><path class="cls-3" d="M0,0H0" transform="translate(-17 -32)"/><path class="cls-3" d="M0,0H0" transform="translate(-17 -32)"/><path class="cls-3" d="M0,0H0" transform="translate(-17 -32)"/><path class="cls-3" d="M0,0H0" transform="translate(-17 -32)"/><path class="cls-3" d="M0,0H0" transform="translate(-17 -32)"/><line class="cls-2" x1="509" y1="596" x2="479" y2="468"/><path class="cls-1" d="M0,0H0" transform="translate(-17 -32)"/><line class="cls-2" x1="796" y1="401" x2="843" y2="601"/><path class="cls-1" d="M0,0H0" transform="translate(-17 -32)"/><line class="cls-2" x1="839" y1="608" x2="668" y2="648"/><path class="cls-1" d="M0,0H0" transform="translate(-17 -32)"/><line class="cls-2" x1="664" y1="655" x2="674" y2="697"/><path class="cls-1" d="M0,0H0" transform="translate(-17 -32)"/><line class="cls-2" x1="535" y1="771" x2="459" y2="691"/><path class="cls-1" d="M0,0H0" transform="translate(-17 -32)"/><path class="cls-1" d="M0,0H0" transform="translate(-17 -32)"/><line class="cls-2" x1="544" y1="793" x2="550" y2="787"/><path class="cls-1" d="M0,0H0" transform="translate(-17 -32)"/><line class="cls-2" x1="682" y1="718" x2="688" y2="715"/><path class="cls-1" d="M0,0H0" transform="translate(-17 -32)"/><line class="cls-2" x1="693" y1="705" x2="685" y2="671"/><path class="cls-1" d="M0,0H0" transform="translate(-17 -32)"/><line class="cls-2" x1="691" y1="660" x2="857" y2="621"/><path class="cls-1" d="M0,0H0" transform="translate(-17 -32)"/><line class="cls-2" x1="863" y1="611" x2="810" y2="386"/><path class="cls-1" d="M0,0H0" transform="translate(-17 -32)"/><line class="cls-2" x1="802" y1="379" x2="795" y2="379"/><path class="cls-1" d="M0,0H0" transform="translate(-17 -32)"/><line class="cls-2" x1="466" y1="452" x2="463" y2="455"/><path class="cls-1" d="M0,0H0" transform="translate(-17 -32)"/><line class="cls-2" x1="460" y1="464" x2="493" y2="600"/><path class="cls-1" d="M0,0H0" transform="translate(-17 -32)"/><line class="cls-2" x1="443" y1="674" x2="437" y2="680"/><path class="cls-1" d="M0,0H0" transform="translate(-17 -32)"/><line class="cls-2" x1="437" y1="692" x2="532" y2="793"/><path class="cls-1" d="M0,0H0" transform="translate(-17 -32)"/><path class="cls-3" d="M0,0H0" transform="translate(-17 -32)"/><path class="cls-3" d="M0,0H0" transform="translate(-17 -32)"/><path class="cls-3" d="M0,0H0" transform="translate(-17 -32)"/><path class="cls-3" d="M0,0H0" transform="translate(-17 -32)"/><path class="cls-3" d="M0,0H0" transform="translate(-17 -32)"/><path class="cls-3" d="M0,0H0" transform="translate(-17 -32)"/><path class="cls-3" d="M0,0H0" transform="translate(-17 -32)"/><path class="cls-3" d="M0,0H0" transform="translate(-17 -32)"/><path class="cls-3" d="M0,0H0" transform="translate(-17 -32)"/><path class="cls-3" d="M0,0H0" transform="translate(-17 -32)"/></svg>