<svg id="_0" data-name="0" xmlns="http://www.w3.org/2000/svg" viewBox="0 0 912 605"><defs><style>.cls-1{fill:lime;}.cls-2{fill:red;}</style></defs><title>gherkin_with_steps</title><path class="cls-1" d="M0,0H0M0,0Z" transform="translate(-20 -37)"/><path class="cls-2" d="M0,0H0M0,0Z" transform="translate(-20 -37)"/><path class="cls-2" d="M0,0H0M0,0Z" transform="translate(-20 -37)"/><path class="cls-2" d="M0,0H0M0,0Z" transform="translate(-20 -37)"/><path class="cls-2" d="M0,0H0M0,0Z" transform="translate(-20 -37)"/><path class="cls-2" d="M0,0H0M0,0Z" transform="translate(-20 -37)"/><path class="cls-2" d="M0,0H0M0,0Z" transform="translate(-20 -37)"/><path class="cls-2" d="M0,0H0M0,0Z" transform="translate(-20 -37)"/><path class="cls-2" d="M0,0H0M0,0Z" transform="translate(-20 -37)"/><path class="cls-2" d="M0,0H0M0,0Z" transform="translate(-20 -37)"/><path class="cls-2" d="M0,0H0M0,0Z" transform="translate(-20 -37)"/><path class="cls-2" d="M0,0H0M0,0Z" transform="translate(-20 -37)"/><path class="cls-2" d="M0,0H0M0,0Z" transform="translate(-20 -37)"/><path class="cls-2" d="M0,0H0M0,0Z" transform="translate(-20 -37)"/><path class="cls-2" d="M0,0H0M0,0Z" transform="translate(-20 -37)"/><path class="cls-1" d="M0,0H0M0,0Z" transform="translate(-20 -37)"/><path class="cls-2" d="M0,0H0M0,0Z" transform="translate(-20 -37)"/><path class="cls-2" d="M0,0H0M0,0Z" transform="translate(-20 -37)"/><path class="cls-2" d="M0,0H0M0,0Z" transform="translate(-20 -37)"/><path class="cls-2" d="M0,0H0M0,0Z" transform="translate(-20 -37)"/><path class="cls-2" d="M0,0H0M0,0Z" transform="translate(-20 -37)"/><path class="cls-2" d="M0,0H0M0,0Z" transform="translate(-20 -37)"/><path class="cls-2" d="M0,0H0M0,0Z" transform="translate(-20 -37)"/><path class="cls-2" d="M0,0H0M0,0Z" transform="translate(-20 -37)"/><path class="cls-2" d="M0,0H0M0,0Z" transform="translate(-20 -37)"/><path class="cls-2" d="M0,0H0M0,0Z" transform="translate(-20 -37)"/><path class="cls-2" d="M0,0H0M0,0Z" transform="translate(-20 -37)"/><path class="cls-2" d="M0,0H0M0,0Z" transform="translate(-20 -37)"/><path class="cls-2" d="M0,0H0M0,0Z" transform="translate(-20 -37)"/><path class="cls-2" d="M0,0H0M0,0Z" transform="translate(-20 -37)"/><path class="cls-1" d="M0,0H0M0,0Z" transform="translate(-20 -37)"/><path class="cls-2" d="M0,0H0M0,0Z" transform="translate(-20 -37)"/><path class="cls-2" d="M0,0H0M0,0Z" transform="translate(-20 -37)"/><path class="cls-2" d="M0,0H0M0,0Z" transform="translate(-20 -37)"/><path class="cls-2" d="M0,0H0M0,0Z" transform="translate(-20 -37)"/><path class="cls-2" d="M0,0H0M0,0Z" transform="translate(-20 -37)"/><path class="cls-2" d="M0,0H0M0,0Z" transform="translate(-20 -37)"/><path class="cls-2" d="M0,0H0M0,0Z" transform="translate(-20 -37)"/><path class="cls-2" d="M0,0H0M0,0Z" transform="translate(-20 -37)"/><path class="cls-2" d="M0,0H0M0,0Z" transform="translate(-20 -37)"/><path class="cls-2" d="M0,0H0M0,0Z" transform="translate(-20 -37)"/><path class="cls-2" d="M0,0H0M0,0Z" transform="translate(-20 -37)"/><path class="cls-2" d="M0,0H0M0,0Z" transform="translate(-20 -37)"/><path class="cls-2" d="M0,0H0M0,0Z" transform="translate(-20 -37)"/><path class="cls-2" d="M0,0H0M0,0Z" transform="translate(-20 -37)"/><path class="cls-1" d="M0,0H0M0,0Z" transform="translate(-20 -37)"/><path class="cls-2" d="M0,0H0M0,0Z" transform="translate(-20 -37)"/><path class="cls-2" d="M0,0H0M0,0Z" transform="translate(-20 -37)"/><path class="cls-2" d="M0,0H0M0,0Z" transform="translate(-20 -37)"/><path class="cls-2" d="M0,0H0M0,0Z" transform="translate(-20 -37)"/><path class="cls-2" d="M0,0H0M0,0Z" transform="translate(-20 -37)"/><path class="cls-2" d="M0,0H0M0,0Z" transform="translate(-20 -37)"/><path class="cls-2" d="M0,0H0M0,0Z" transform="translate(-20 -37)"/><path class="cls-2" d="M0,0H0M0,0Z" transform="translate(-20 -37)"/><path class="cls-2" d="M0,0H0M0,0Z" transform="translate(-20 -37)"/><path class="cls-2" d="M0,0H0M0,0Z" transform="translate(-20 -37)"/><path class="cls-1" d="M0,0H0M0,0Z" transform="translate(-20 -37)"/><path class="cls-2" d="M0,0H0M0,0Z" transform="translate(-20 -37)"/><path class="cls-2" d="M0,0H0M0,0Z" transform="translate(-20 -37)"/><path class="cls-2" d="M0,0H0M0,0Z" transform="translate(-20 -37)"/><path class="cls-2" d="M0,0H0M0,0Z" transform="translate(-20 -37)"/><path class="cls-2" d="M0,0H0M0,0Z" transform="translate(-20 -37)"/><path class="cls-2" d="M0,0H0M0,0Z" transform="translate(-20 -37)"/><path class="cls-2" d="M0,0H0M0,0Z" transform="translate(-20 -37)"/><path class="cls-2" d="M0,0H0M0,0Z" transform="translate(-20 -37)"/><path class="cls-2" d="M0,0H0M0,0Z" transform="translate(-20 -37)"/><path class="cls-2" d="M0,0H0M0,0Z" transform="translate(-20 -37)"/><path class="cls-2" d="M0,0H0M0,0Z" transform="translate(-20 -37)"/><path class="cls-2" d="M0,0H0M0,0Z" transform="translate(-20 -37)"/><path class="cls-2" d="M0,0H0M0,0Z" transform="translate(-20 -37)"/><path class="cls-2" d="M0,0H0M0,0Z" transform="translate(-20 -37)"/><path class="cls-2" d="M0,0H0M0,0Z" transform="translate(-20 -37)"/><path class="cls-2" d="M0,0H0M0,0Z" transform="translate(-20 -37)"/><path class="cls-2" d="M0,0H0M0,0Z" transform="translate(-20 -37)"/><path class="cls-2" d="M0,0H0M0,0Z" transform="translate(-20 -37)"/><path class="cls-2" d="M0,0H0M0,0Z" transform="translate(-20 -37)"/><path class="cls-2" d="M0,0H0M0,0Z" transform="translate(-20 -37)"/><path class="cls-2" d="M0,0H0M0,0Z" transform="translate(-20 -37)"/><path class="cls-2" d="M0,0H0M0,0Z" transform="translate(-20 -37)"/><path class="cls-2" d="M0,0H0M0,0Z" transform="translate(-20 -37)"/><path class="cls-2" d="M0,0H0M0,0Z" transform="translate(-20 -37)"/><path class="cls-2" d="M0,0H0M0,0Z" transform="translate(-20 -37)"/><path class="cls-2" d="M0,0H0M0,0Z" transform="translate(-20 -37)"/><path class="cls-2" d="M0,0H0M0,0Z" transform="translate(-20 -37)"/><path class="cls-2" d="M0,0H0M0,0Z" transform="translate(-20 -37)"/><path class="cls-2" d="M0,0H0M0,0Z" transform="translate(-20 -37)"/><path class="cls-2" d="M0,0H0M0,0Z" transform="translate(-20 -37)"/><path class="cls-2" d="M0,0H0M0,0Z" transform="translate(-20 -37)"/><path class="cls-2" d="M0,0H0M0,0Z" transform="translate(-20 -37)"/><path class="cls-2" d="M0,0H0M0,0Z" transform="translate(-20 -37)"/><path class="cls-2" d="M0,0H0M0,0Z" transform="translate(-20 -37)"/><path class="cls-2" d="M0,0H0M0,0Z" transform="translate(-20 -37)"/><path class="cls-2" d="M0,0H0M0,0Z" transform="translate(-20 -37)"/><path class="cls-2" d="M0,0H0M0,0Z" transform="translate(-20 -37)"/><path class="cls-2" d="M0,0H0M0,0Z" transform="translate(-20 -37)"/><path class="cls-2" d="M0,0H0M0,0Z" transform="translate(-20 -37)"/><path class="cls-2" d="M0,0H0M0,0Z" transform="translate(-20 -37)"/><path class="cls-2" d="M0,0H0M0,0Z" transform="translate(-20 -37)"/><path class="cls-2" d="M0,0H0M0,0Z" transform="translate(-20 -37)"/><path class="cls-2" d="M0,0H0M0,0Z" transform="translate(-20 -37)"/><path class="cls-2" d="M0,0H0M0,0Z" transform="translate(-20 -37)"/></svg>