<svg id="ADD_your_design_here" data-name="ADD your design here" xmlns="http://www.w3.org/2000/svg" viewBox="0 0 499 542"><defs><style>.cls-1{fill:#fff;stroke:#000;stroke-width:0.2px;}</style></defs><title>gherkin_super_slim</title><path class="cls-1" d="M0,0ZM0,0ZM0,0ZM0,0ZM0,0ZM0,0ZM0,0ZM0,0ZM0,0ZM0,0ZM0,0ZM0,0ZM0,0ZM0,0ZM0,0Z" transform="translate(-35 -48)"/><path class="cls-1" d="M0,0ZM0,0ZM0,0ZM0,0ZM0,0ZM0,0ZM0,0ZM0,0ZM0,0ZM0,0ZM0,0ZM0,0ZM0,0ZM0,0ZM0,0Z" transform="translate(-35 -48)"/><path class="cls-1" d="M0,0ZM0,0ZM0,0ZM0,0ZM0,0ZM0,0ZM0,0ZM0,0ZM0,0ZM0,0ZM0,0ZM0,0ZM0,0ZM0,0ZM0,0ZM0,0ZM0,0ZM0,0ZM0,0ZM0,0ZM0,0ZM0,0ZM0,0ZM0,0ZM0,0ZM0,0ZM0,0ZM0,0ZM0,0ZM0,0ZM0,0ZM0,0ZM0,0ZM0,0ZM0,0ZM0,0ZM0,0ZM0,0ZM0,0ZM0,0ZM0,0ZM0,0ZM0,0ZM0,0ZM0,0Z" transform="translate(-35 -48)"/></svg>